G75*
%MOIN*%
%OFA0B0*%
%FSLAX25Y25*%
%IPPOS*%
%LPD*%
%AMOC8*
5,1,8,0,0,1.08239X$1,22.5*
%
%ADD10C,0.06398*%
%ADD11OC8,0.07600*%
%ADD12C,0.02000*%
%ADD13C,0.02378*%
%ADD14C,0.01200*%
D10*
X0060170Y0053495D03*
D11*
X0065170Y0020700D03*
X0075170Y0020700D03*
X0055170Y0020700D03*
X0045170Y0020700D03*
D12*
X0067670Y0028200D02*
X0067670Y0033200D01*
X0067381Y0033200D01*
X0067381Y0039161D01*
X0067670Y0039450D01*
X0067381Y0039450D01*
X0067670Y0028200D02*
X0075170Y0020700D01*
D13*
X0067381Y0033200D03*
X0067381Y0039450D03*
X0052670Y0050700D03*
X0067979Y0051009D03*
D14*
X0039770Y0058551D02*
X0039770Y0015300D01*
X0081741Y0015300D01*
X0081741Y0058551D01*
X0039770Y0058551D01*
X0039770Y0057545D02*
X0057580Y0057545D01*
X0057655Y0057600D02*
X0057044Y0057156D01*
X0056510Y0056621D01*
X0056066Y0056010D01*
X0055723Y0055337D01*
X0055489Y0054619D01*
X0055376Y0053904D01*
X0059761Y0053904D01*
X0059761Y0053086D01*
X0055376Y0053086D01*
X0055469Y0052500D01*
X0054248Y0052500D01*
X0053659Y0053089D01*
X0051680Y0053089D01*
X0050281Y0051690D01*
X0050281Y0049710D01*
X0051680Y0048311D01*
X0053659Y0048311D01*
X0054248Y0048900D01*
X0055999Y0048900D01*
X0057602Y0047296D01*
X0062738Y0047296D01*
X0063792Y0048351D01*
X0064650Y0049209D01*
X0066401Y0049209D01*
X0066990Y0048620D01*
X0068969Y0048620D01*
X0070368Y0050020D01*
X0070368Y0051999D01*
X0068969Y0053398D01*
X0066990Y0053398D01*
X0066401Y0052809D01*
X0064920Y0052809D01*
X0064964Y0053086D01*
X0060579Y0053086D01*
X0060579Y0053904D01*
X0064964Y0053904D01*
X0064851Y0054619D01*
X0064617Y0055337D01*
X0064274Y0056010D01*
X0063830Y0056621D01*
X0063296Y0057156D01*
X0062685Y0057600D01*
X0062012Y0057943D01*
X0061294Y0058176D01*
X0060579Y0058289D01*
X0060579Y0053904D01*
X0059761Y0053904D01*
X0059761Y0058289D01*
X0059046Y0058176D01*
X0058328Y0057943D01*
X0057655Y0057600D01*
X0056310Y0056346D02*
X0039770Y0056346D01*
X0039770Y0055148D02*
X0055661Y0055148D01*
X0055383Y0053949D02*
X0039770Y0053949D01*
X0039770Y0052751D02*
X0051342Y0052751D01*
X0050281Y0051552D02*
X0039770Y0051552D01*
X0039770Y0050354D02*
X0050281Y0050354D01*
X0050836Y0049155D02*
X0039770Y0049155D01*
X0039770Y0047957D02*
X0056942Y0047957D01*
X0058348Y0049096D02*
X0056744Y0050700D01*
X0052670Y0050700D01*
X0053998Y0052751D02*
X0055429Y0052751D01*
X0059761Y0053949D02*
X0060579Y0053949D01*
X0060579Y0055148D02*
X0059761Y0055148D01*
X0059761Y0056346D02*
X0060579Y0056346D01*
X0060579Y0057545D02*
X0059761Y0057545D01*
X0062760Y0057545D02*
X0081741Y0057545D01*
X0081741Y0056346D02*
X0064030Y0056346D01*
X0064679Y0055148D02*
X0081741Y0055148D01*
X0081741Y0053949D02*
X0064957Y0053949D01*
X0069616Y0052751D02*
X0081741Y0052751D01*
X0081741Y0051552D02*
X0070368Y0051552D01*
X0070368Y0050354D02*
X0081741Y0050354D01*
X0081741Y0049155D02*
X0069504Y0049155D01*
X0066455Y0049155D02*
X0064596Y0049155D01*
X0063398Y0047957D02*
X0081741Y0047957D01*
X0081741Y0046758D02*
X0039770Y0046758D01*
X0039770Y0045560D02*
X0081741Y0045560D01*
X0081741Y0044361D02*
X0039770Y0044361D01*
X0039770Y0043163D02*
X0081741Y0043163D01*
X0081741Y0041964D02*
X0039770Y0041964D01*
X0039770Y0040766D02*
X0065318Y0040766D01*
X0064992Y0040440D02*
X0064992Y0038460D01*
X0065181Y0038271D01*
X0065181Y0034379D01*
X0064992Y0034190D01*
X0064992Y0032210D01*
X0065470Y0031732D01*
X0065470Y0027289D01*
X0066759Y0026000D01*
X0067059Y0025700D01*
X0063099Y0025700D01*
X0060170Y0022771D01*
X0060170Y0018629D01*
X0063099Y0015700D01*
X0067241Y0015700D01*
X0070170Y0018629D01*
X0073099Y0015700D01*
X0077241Y0015700D01*
X0080170Y0018629D01*
X0080170Y0022771D01*
X0077241Y0025700D01*
X0073281Y0025700D01*
X0069870Y0029111D01*
X0069870Y0034111D01*
X0069581Y0034400D01*
X0069581Y0038250D01*
X0069870Y0038539D01*
X0069870Y0040361D01*
X0068581Y0041650D01*
X0068559Y0041650D01*
X0068370Y0041839D01*
X0066391Y0041839D01*
X0064992Y0040440D01*
X0064992Y0039567D02*
X0039770Y0039567D01*
X0039770Y0038369D02*
X0065084Y0038369D01*
X0065181Y0037170D02*
X0039770Y0037170D01*
X0039770Y0035972D02*
X0065181Y0035972D01*
X0065181Y0034773D02*
X0039770Y0034773D01*
X0039770Y0033575D02*
X0064992Y0033575D01*
X0064992Y0032376D02*
X0039770Y0032376D01*
X0039770Y0031178D02*
X0065470Y0031178D01*
X0065470Y0029979D02*
X0039770Y0029979D01*
X0039770Y0028781D02*
X0065470Y0028781D01*
X0065470Y0027582D02*
X0039770Y0027582D01*
X0039770Y0026384D02*
X0066375Y0026384D01*
X0062584Y0025185D02*
X0057756Y0025185D01*
X0057241Y0025700D02*
X0053099Y0025700D01*
X0050453Y0023054D01*
X0047407Y0026100D01*
X0045554Y0026100D01*
X0045554Y0021084D01*
X0044786Y0021084D01*
X0044786Y0026100D01*
X0042933Y0026100D01*
X0039770Y0022937D01*
X0039770Y0021084D01*
X0044786Y0021084D01*
X0044786Y0020316D01*
X0045554Y0020316D01*
X0045554Y0015300D01*
X0047407Y0015300D01*
X0050453Y0018346D01*
X0053099Y0015700D01*
X0057241Y0015700D01*
X0060170Y0018629D01*
X0060170Y0022771D01*
X0057241Y0025700D01*
X0058954Y0023987D02*
X0061385Y0023987D01*
X0060187Y0022788D02*
X0060153Y0022788D01*
X0060170Y0021590D02*
X0060170Y0021590D01*
X0060170Y0020391D02*
X0060170Y0020391D01*
X0060170Y0019193D02*
X0060170Y0019193D01*
X0059535Y0017994D02*
X0060805Y0017994D01*
X0062003Y0016796D02*
X0058336Y0016796D01*
X0052003Y0016796D02*
X0048902Y0016796D01*
X0050101Y0017994D02*
X0050805Y0017994D01*
X0047704Y0015597D02*
X0081741Y0015597D01*
X0081741Y0016796D02*
X0078336Y0016796D01*
X0079535Y0017994D02*
X0081741Y0017994D01*
X0081741Y0019193D02*
X0080170Y0019193D01*
X0080170Y0020391D02*
X0081741Y0020391D01*
X0081741Y0021590D02*
X0080170Y0021590D01*
X0080153Y0022788D02*
X0081741Y0022788D01*
X0081741Y0023987D02*
X0078954Y0023987D01*
X0077756Y0025185D02*
X0081741Y0025185D01*
X0081741Y0026384D02*
X0072598Y0026384D01*
X0071399Y0027582D02*
X0081741Y0027582D01*
X0081741Y0028781D02*
X0070201Y0028781D01*
X0069870Y0029979D02*
X0081741Y0029979D01*
X0081741Y0031178D02*
X0069870Y0031178D01*
X0069870Y0032376D02*
X0081741Y0032376D01*
X0081741Y0033575D02*
X0069870Y0033575D01*
X0069581Y0034773D02*
X0081741Y0034773D01*
X0081741Y0035972D02*
X0069581Y0035972D01*
X0069581Y0037170D02*
X0081741Y0037170D01*
X0081741Y0038369D02*
X0069700Y0038369D01*
X0069870Y0039567D02*
X0081741Y0039567D01*
X0081741Y0040766D02*
X0069465Y0040766D01*
X0061992Y0049096D02*
X0058348Y0049096D01*
X0061992Y0049096D02*
X0063905Y0051009D01*
X0067979Y0051009D01*
X0052584Y0025185D02*
X0048322Y0025185D01*
X0049520Y0023987D02*
X0051385Y0023987D01*
X0045554Y0023987D02*
X0044786Y0023987D01*
X0044786Y0025185D02*
X0045554Y0025185D01*
X0042018Y0025185D02*
X0039770Y0025185D01*
X0039770Y0023987D02*
X0040820Y0023987D01*
X0039770Y0022788D02*
X0039770Y0022788D01*
X0039770Y0021590D02*
X0039770Y0021590D01*
X0039770Y0020391D02*
X0044786Y0020391D01*
X0044786Y0020316D02*
X0039770Y0020316D01*
X0039770Y0018463D01*
X0042933Y0015300D01*
X0044786Y0015300D01*
X0044786Y0020316D01*
X0044786Y0019193D02*
X0045554Y0019193D01*
X0045554Y0017994D02*
X0044786Y0017994D01*
X0044786Y0016796D02*
X0045554Y0016796D01*
X0045554Y0015597D02*
X0044786Y0015597D01*
X0042636Y0015597D02*
X0039770Y0015597D01*
X0039770Y0016796D02*
X0041438Y0016796D01*
X0040239Y0017994D02*
X0039770Y0017994D01*
X0039770Y0019193D02*
X0039770Y0019193D01*
X0044786Y0021590D02*
X0045554Y0021590D01*
X0045554Y0022788D02*
X0044786Y0022788D01*
X0068336Y0016796D02*
X0072003Y0016796D01*
X0070805Y0017994D02*
X0069535Y0017994D01*
X0070170Y0018629D02*
X0070170Y0022589D01*
X0070170Y0022589D01*
X0070170Y0018629D01*
X0070170Y0019193D02*
X0070170Y0019193D01*
X0070170Y0020391D02*
X0070170Y0020391D01*
X0070170Y0021590D02*
X0070170Y0021590D01*
M02*
