G75*
%MOIN*%
%OFA0B0*%
%FSLAX25Y25*%
%IPPOS*%
%LPD*%
%AMOC8*
5,1,8,0,0,1.08239X$1,22.5*
%
%ADD10C,0.00500*%
D10*
X0044170Y0030700D02*
X0045725Y0030700D01*
X0045725Y0034200D01*
X0044170Y0034200D01*
X0044559Y0032644D02*
X0045725Y0032644D01*
X0047630Y0034200D02*
X0047630Y0030700D01*
X0049575Y0034200D01*
X0049575Y0030700D01*
X0051350Y0031672D02*
X0051350Y0033228D01*
X0051352Y0033289D01*
X0051358Y0033350D01*
X0051367Y0033410D01*
X0051381Y0033470D01*
X0051398Y0033528D01*
X0051418Y0033586D01*
X0051443Y0033642D01*
X0051470Y0033696D01*
X0051501Y0033749D01*
X0051536Y0033799D01*
X0051573Y0033848D01*
X0051613Y0033893D01*
X0051657Y0033937D01*
X0051702Y0033977D01*
X0051751Y0034014D01*
X0051801Y0034049D01*
X0051854Y0034080D01*
X0051908Y0034107D01*
X0051964Y0034132D01*
X0052022Y0034152D01*
X0052080Y0034169D01*
X0052140Y0034183D01*
X0052200Y0034192D01*
X0052261Y0034198D01*
X0052322Y0034200D01*
X0052383Y0034198D01*
X0052444Y0034192D01*
X0052504Y0034183D01*
X0052564Y0034169D01*
X0052622Y0034152D01*
X0052680Y0034132D01*
X0052736Y0034107D01*
X0052790Y0034080D01*
X0052843Y0034049D01*
X0052893Y0034014D01*
X0052942Y0033977D01*
X0052987Y0033937D01*
X0053031Y0033893D01*
X0053071Y0033848D01*
X0053108Y0033799D01*
X0053143Y0033749D01*
X0053174Y0033696D01*
X0053201Y0033642D01*
X0053226Y0033586D01*
X0053246Y0033528D01*
X0053263Y0033470D01*
X0053277Y0033410D01*
X0053286Y0033350D01*
X0053292Y0033289D01*
X0053294Y0033228D01*
X0053295Y0033228D02*
X0053295Y0031672D01*
X0053294Y0031672D02*
X0053292Y0031611D01*
X0053286Y0031550D01*
X0053277Y0031490D01*
X0053263Y0031430D01*
X0053246Y0031372D01*
X0053226Y0031314D01*
X0053201Y0031258D01*
X0053174Y0031204D01*
X0053143Y0031151D01*
X0053108Y0031101D01*
X0053071Y0031052D01*
X0053031Y0031007D01*
X0052987Y0030963D01*
X0052942Y0030923D01*
X0052893Y0030886D01*
X0052843Y0030851D01*
X0052790Y0030820D01*
X0052736Y0030793D01*
X0052680Y0030768D01*
X0052622Y0030748D01*
X0052564Y0030731D01*
X0052504Y0030717D01*
X0052444Y0030708D01*
X0052383Y0030702D01*
X0052322Y0030700D01*
X0052261Y0030702D01*
X0052200Y0030708D01*
X0052140Y0030717D01*
X0052080Y0030731D01*
X0052022Y0030748D01*
X0051964Y0030768D01*
X0051908Y0030793D01*
X0051854Y0030820D01*
X0051801Y0030851D01*
X0051751Y0030886D01*
X0051702Y0030923D01*
X0051657Y0030963D01*
X0051613Y0031007D01*
X0051573Y0031052D01*
X0051536Y0031101D01*
X0051501Y0031151D01*
X0051470Y0031204D01*
X0051443Y0031258D01*
X0051418Y0031314D01*
X0051398Y0031372D01*
X0051381Y0031430D01*
X0051367Y0031490D01*
X0051358Y0031550D01*
X0051352Y0031611D01*
X0051350Y0031672D01*
X0055070Y0030700D02*
X0055070Y0034200D01*
X0055070Y0032644D02*
X0057015Y0032644D01*
X0057015Y0034200D02*
X0057015Y0030700D01*
X0059574Y0032256D02*
X0060546Y0032256D01*
X0062390Y0031672D02*
X0062390Y0033228D01*
X0062392Y0033289D01*
X0062398Y0033350D01*
X0062407Y0033410D01*
X0062421Y0033470D01*
X0062438Y0033528D01*
X0062458Y0033586D01*
X0062483Y0033642D01*
X0062510Y0033696D01*
X0062541Y0033749D01*
X0062576Y0033799D01*
X0062613Y0033848D01*
X0062653Y0033893D01*
X0062697Y0033937D01*
X0062742Y0033977D01*
X0062791Y0034014D01*
X0062841Y0034049D01*
X0062894Y0034080D01*
X0062948Y0034107D01*
X0063004Y0034132D01*
X0063062Y0034152D01*
X0063120Y0034169D01*
X0063180Y0034183D01*
X0063240Y0034192D01*
X0063301Y0034198D01*
X0063362Y0034200D01*
X0063423Y0034198D01*
X0063484Y0034192D01*
X0063544Y0034183D01*
X0063604Y0034169D01*
X0063662Y0034152D01*
X0063720Y0034132D01*
X0063776Y0034107D01*
X0063830Y0034080D01*
X0063883Y0034049D01*
X0063933Y0034014D01*
X0063982Y0033977D01*
X0064027Y0033937D01*
X0064071Y0033893D01*
X0064111Y0033848D01*
X0064148Y0033799D01*
X0064183Y0033749D01*
X0064214Y0033696D01*
X0064241Y0033642D01*
X0064266Y0033586D01*
X0064286Y0033528D01*
X0064303Y0033470D01*
X0064317Y0033410D01*
X0064326Y0033350D01*
X0064332Y0033289D01*
X0064334Y0033228D01*
X0064334Y0031672D01*
X0064332Y0031611D01*
X0064326Y0031550D01*
X0064317Y0031490D01*
X0064303Y0031430D01*
X0064286Y0031372D01*
X0064266Y0031314D01*
X0064241Y0031258D01*
X0064214Y0031204D01*
X0064183Y0031151D01*
X0064148Y0031101D01*
X0064111Y0031052D01*
X0064071Y0031007D01*
X0064027Y0030963D01*
X0063982Y0030923D01*
X0063933Y0030886D01*
X0063883Y0030851D01*
X0063830Y0030820D01*
X0063776Y0030793D01*
X0063720Y0030768D01*
X0063662Y0030748D01*
X0063604Y0030731D01*
X0063544Y0030717D01*
X0063484Y0030708D01*
X0063423Y0030702D01*
X0063362Y0030700D01*
X0063301Y0030702D01*
X0063240Y0030708D01*
X0063180Y0030717D01*
X0063120Y0030731D01*
X0063062Y0030748D01*
X0063004Y0030768D01*
X0062948Y0030793D01*
X0062894Y0030820D01*
X0062841Y0030851D01*
X0062791Y0030886D01*
X0062742Y0030923D01*
X0062697Y0030963D01*
X0062653Y0031007D01*
X0062613Y0031052D01*
X0062576Y0031101D01*
X0062541Y0031151D01*
X0062510Y0031204D01*
X0062483Y0031258D01*
X0062458Y0031314D01*
X0062438Y0031372D01*
X0062421Y0031430D01*
X0062407Y0031490D01*
X0062398Y0031550D01*
X0062392Y0031611D01*
X0062390Y0031672D01*
X0060546Y0030700D02*
X0060546Y0034200D01*
X0059574Y0034200D01*
X0059513Y0034198D01*
X0059452Y0034192D01*
X0059392Y0034183D01*
X0059332Y0034169D01*
X0059274Y0034152D01*
X0059216Y0034132D01*
X0059160Y0034107D01*
X0059106Y0034080D01*
X0059053Y0034049D01*
X0059003Y0034014D01*
X0058954Y0033977D01*
X0058909Y0033937D01*
X0058865Y0033893D01*
X0058825Y0033848D01*
X0058788Y0033799D01*
X0058753Y0033749D01*
X0058722Y0033696D01*
X0058695Y0033642D01*
X0058670Y0033586D01*
X0058650Y0033528D01*
X0058633Y0033470D01*
X0058619Y0033410D01*
X0058610Y0033350D01*
X0058604Y0033289D01*
X0058602Y0033228D01*
X0058604Y0033167D01*
X0058610Y0033106D01*
X0058619Y0033046D01*
X0058633Y0032986D01*
X0058650Y0032928D01*
X0058670Y0032870D01*
X0058695Y0032814D01*
X0058722Y0032760D01*
X0058753Y0032707D01*
X0058788Y0032657D01*
X0058825Y0032608D01*
X0058865Y0032563D01*
X0058909Y0032519D01*
X0058954Y0032479D01*
X0059003Y0032442D01*
X0059053Y0032407D01*
X0059106Y0032376D01*
X0059160Y0032349D01*
X0059216Y0032324D01*
X0059274Y0032304D01*
X0059332Y0032287D01*
X0059392Y0032273D01*
X0059452Y0032264D01*
X0059513Y0032258D01*
X0059574Y0032256D01*
X0065960Y0030700D02*
X0066738Y0032256D01*
X0066933Y0032256D02*
X0067905Y0032256D01*
X0066933Y0032256D02*
X0066872Y0032258D01*
X0066811Y0032264D01*
X0066751Y0032273D01*
X0066691Y0032287D01*
X0066633Y0032304D01*
X0066575Y0032324D01*
X0066519Y0032349D01*
X0066465Y0032376D01*
X0066412Y0032407D01*
X0066362Y0032442D01*
X0066313Y0032479D01*
X0066268Y0032519D01*
X0066224Y0032563D01*
X0066184Y0032608D01*
X0066147Y0032657D01*
X0066112Y0032707D01*
X0066081Y0032760D01*
X0066054Y0032814D01*
X0066029Y0032870D01*
X0066009Y0032928D01*
X0065992Y0032986D01*
X0065978Y0033046D01*
X0065969Y0033106D01*
X0065963Y0033167D01*
X0065961Y0033228D01*
X0065963Y0033289D01*
X0065969Y0033350D01*
X0065978Y0033410D01*
X0065992Y0033470D01*
X0066009Y0033528D01*
X0066029Y0033586D01*
X0066054Y0033642D01*
X0066081Y0033696D01*
X0066112Y0033749D01*
X0066147Y0033799D01*
X0066184Y0033848D01*
X0066224Y0033893D01*
X0066268Y0033937D01*
X0066313Y0033977D01*
X0066362Y0034014D01*
X0066412Y0034049D01*
X0066465Y0034080D01*
X0066519Y0034107D01*
X0066575Y0034132D01*
X0066633Y0034152D01*
X0066691Y0034169D01*
X0066751Y0034183D01*
X0066811Y0034192D01*
X0066872Y0034198D01*
X0066933Y0034200D01*
X0067905Y0034200D01*
X0067905Y0030700D01*
X0069512Y0030700D02*
X0070290Y0030700D01*
X0070343Y0030702D01*
X0070396Y0030707D01*
X0070448Y0030716D01*
X0070500Y0030729D01*
X0070551Y0030745D01*
X0070600Y0030764D01*
X0070648Y0030787D01*
X0070694Y0030813D01*
X0070739Y0030842D01*
X0070781Y0030874D01*
X0070821Y0030909D01*
X0070859Y0030947D01*
X0070894Y0030987D01*
X0070926Y0031029D01*
X0070955Y0031074D01*
X0070981Y0031120D01*
X0071004Y0031168D01*
X0071023Y0031217D01*
X0071039Y0031268D01*
X0071052Y0031320D01*
X0071061Y0031372D01*
X0071066Y0031425D01*
X0071068Y0031478D01*
X0071068Y0033422D01*
X0071066Y0033478D01*
X0071060Y0033533D01*
X0071050Y0033587D01*
X0071036Y0033641D01*
X0071019Y0033694D01*
X0070998Y0033745D01*
X0070973Y0033795D01*
X0070945Y0033843D01*
X0070913Y0033888D01*
X0070878Y0033931D01*
X0070840Y0033972D01*
X0070799Y0034010D01*
X0070756Y0034045D01*
X0070711Y0034076D01*
X0070663Y0034105D01*
X0070613Y0034130D01*
X0070562Y0034151D01*
X0070509Y0034168D01*
X0070455Y0034182D01*
X0070401Y0034192D01*
X0070346Y0034198D01*
X0070290Y0034200D01*
X0069512Y0034200D01*
X0072573Y0034200D02*
X0073351Y0034200D01*
X0072962Y0034200D02*
X0072962Y0030700D01*
X0073351Y0030700D02*
X0072573Y0030700D01*
X0075036Y0030700D02*
X0075036Y0034200D01*
X0076202Y0032256D01*
X0077369Y0034200D01*
X0077369Y0030700D01*
X0073353Y0036950D02*
X0071797Y0036950D01*
X0073353Y0036950D02*
X0073353Y0040450D01*
X0075257Y0040450D02*
X0075257Y0037922D01*
X0075258Y0037922D02*
X0075260Y0037861D01*
X0075266Y0037800D01*
X0075275Y0037740D01*
X0075289Y0037680D01*
X0075306Y0037622D01*
X0075326Y0037564D01*
X0075351Y0037508D01*
X0075378Y0037454D01*
X0075409Y0037401D01*
X0075444Y0037351D01*
X0075481Y0037302D01*
X0075521Y0037257D01*
X0075565Y0037213D01*
X0075610Y0037173D01*
X0075659Y0037136D01*
X0075709Y0037101D01*
X0075762Y0037070D01*
X0075816Y0037043D01*
X0075872Y0037018D01*
X0075930Y0036998D01*
X0075988Y0036981D01*
X0076048Y0036967D01*
X0076108Y0036958D01*
X0076169Y0036952D01*
X0076230Y0036950D01*
X0076291Y0036952D01*
X0076352Y0036958D01*
X0076412Y0036967D01*
X0076472Y0036981D01*
X0076530Y0036998D01*
X0076588Y0037018D01*
X0076644Y0037043D01*
X0076698Y0037070D01*
X0076751Y0037101D01*
X0076801Y0037136D01*
X0076850Y0037173D01*
X0076895Y0037213D01*
X0076939Y0037257D01*
X0076979Y0037302D01*
X0077016Y0037351D01*
X0077051Y0037401D01*
X0077082Y0037454D01*
X0077109Y0037508D01*
X0077134Y0037564D01*
X0077154Y0037622D01*
X0077171Y0037680D01*
X0077185Y0037740D01*
X0077194Y0037800D01*
X0077200Y0037861D01*
X0077202Y0037922D01*
X0077202Y0040450D01*
X0075946Y0043200D02*
X0075946Y0046700D01*
X0074974Y0046700D01*
X0074913Y0046698D01*
X0074852Y0046692D01*
X0074792Y0046683D01*
X0074732Y0046669D01*
X0074674Y0046652D01*
X0074616Y0046632D01*
X0074560Y0046607D01*
X0074506Y0046580D01*
X0074453Y0046549D01*
X0074403Y0046514D01*
X0074354Y0046477D01*
X0074309Y0046437D01*
X0074265Y0046393D01*
X0074225Y0046348D01*
X0074188Y0046299D01*
X0074153Y0046249D01*
X0074122Y0046196D01*
X0074095Y0046142D01*
X0074070Y0046086D01*
X0074050Y0046028D01*
X0074033Y0045970D01*
X0074019Y0045910D01*
X0074010Y0045850D01*
X0074004Y0045789D01*
X0074002Y0045728D01*
X0074004Y0045667D01*
X0074010Y0045606D01*
X0074019Y0045546D01*
X0074033Y0045486D01*
X0074050Y0045428D01*
X0074070Y0045370D01*
X0074095Y0045314D01*
X0074122Y0045260D01*
X0074153Y0045207D01*
X0074188Y0045157D01*
X0074225Y0045108D01*
X0074265Y0045063D01*
X0074309Y0045019D01*
X0074354Y0044979D01*
X0074403Y0044942D01*
X0074453Y0044907D01*
X0074506Y0044876D01*
X0074560Y0044849D01*
X0074616Y0044824D01*
X0074674Y0044804D01*
X0074732Y0044787D01*
X0074792Y0044773D01*
X0074852Y0044764D01*
X0074913Y0044758D01*
X0074974Y0044756D01*
X0075946Y0044756D01*
X0078059Y0044658D02*
X0079128Y0045242D01*
X0078739Y0046700D02*
X0078667Y0046698D01*
X0078595Y0046693D01*
X0078523Y0046684D01*
X0078452Y0046672D01*
X0078382Y0046656D01*
X0078312Y0046636D01*
X0078244Y0046613D01*
X0078177Y0046587D01*
X0078111Y0046558D01*
X0078046Y0046525D01*
X0077984Y0046489D01*
X0077923Y0046450D01*
X0077864Y0046408D01*
X0079128Y0045241D02*
X0079174Y0045271D01*
X0079218Y0045303D01*
X0079260Y0045339D01*
X0079299Y0045377D01*
X0079335Y0045418D01*
X0079369Y0045461D01*
X0079399Y0045507D01*
X0079426Y0045554D01*
X0079450Y0045603D01*
X0079470Y0045654D01*
X0079487Y0045706D01*
X0079500Y0045759D01*
X0079509Y0045813D01*
X0079515Y0045867D01*
X0079517Y0045922D01*
X0079515Y0045978D01*
X0079509Y0046033D01*
X0079499Y0046087D01*
X0079485Y0046141D01*
X0079468Y0046194D01*
X0079447Y0046245D01*
X0079422Y0046295D01*
X0079393Y0046343D01*
X0079362Y0046388D01*
X0079327Y0046431D01*
X0079289Y0046472D01*
X0079248Y0046510D01*
X0079205Y0046545D01*
X0079160Y0046576D01*
X0079112Y0046605D01*
X0079062Y0046630D01*
X0079011Y0046651D01*
X0078958Y0046668D01*
X0078904Y0046682D01*
X0078850Y0046692D01*
X0078795Y0046698D01*
X0078739Y0046700D01*
X0079615Y0043686D02*
X0079560Y0043633D01*
X0079502Y0043583D01*
X0079443Y0043535D01*
X0079381Y0043491D01*
X0079317Y0043449D01*
X0079251Y0043410D01*
X0079184Y0043374D01*
X0079115Y0043341D01*
X0079045Y0043312D01*
X0078973Y0043286D01*
X0078900Y0043263D01*
X0078826Y0043244D01*
X0078751Y0043228D01*
X0078676Y0043216D01*
X0078600Y0043207D01*
X0078524Y0043202D01*
X0078448Y0043200D01*
X0078392Y0043202D01*
X0078337Y0043208D01*
X0078283Y0043218D01*
X0078229Y0043232D01*
X0078176Y0043249D01*
X0078125Y0043270D01*
X0078075Y0043295D01*
X0078027Y0043324D01*
X0077982Y0043355D01*
X0077939Y0043390D01*
X0077898Y0043428D01*
X0077860Y0043469D01*
X0077825Y0043512D01*
X0077794Y0043557D01*
X0077765Y0043605D01*
X0077740Y0043655D01*
X0077719Y0043706D01*
X0077702Y0043759D01*
X0077688Y0043813D01*
X0077678Y0043867D01*
X0077672Y0043922D01*
X0077670Y0043978D01*
X0077672Y0044033D01*
X0077678Y0044087D01*
X0077687Y0044141D01*
X0077700Y0044194D01*
X0077717Y0044246D01*
X0077737Y0044297D01*
X0077761Y0044346D01*
X0077788Y0044393D01*
X0077818Y0044439D01*
X0077852Y0044482D01*
X0077888Y0044523D01*
X0077927Y0044561D01*
X0077969Y0044597D01*
X0078013Y0044629D01*
X0078059Y0044659D01*
X0072414Y0045144D02*
X0070470Y0045144D01*
X0066750Y0044950D02*
X0066752Y0044849D01*
X0066757Y0044749D01*
X0066766Y0044649D01*
X0066778Y0044549D01*
X0066794Y0044449D01*
X0066813Y0044351D01*
X0066836Y0044253D01*
X0066862Y0044155D01*
X0066891Y0044059D01*
X0066924Y0043964D01*
X0066960Y0043870D01*
X0066999Y0043777D01*
X0067042Y0043686D01*
X0067061Y0043637D01*
X0067083Y0043589D01*
X0067109Y0043544D01*
X0067138Y0043500D01*
X0067170Y0043458D01*
X0067205Y0043419D01*
X0067243Y0043383D01*
X0067283Y0043350D01*
X0067326Y0043319D01*
X0067371Y0043292D01*
X0067417Y0043268D01*
X0067465Y0043247D01*
X0067515Y0043230D01*
X0067566Y0043217D01*
X0067617Y0043208D01*
X0067670Y0043202D01*
X0067722Y0043200D01*
X0067774Y0043202D01*
X0067827Y0043208D01*
X0067878Y0043217D01*
X0067929Y0043230D01*
X0067979Y0043247D01*
X0068027Y0043268D01*
X0068073Y0043292D01*
X0068118Y0043319D01*
X0068161Y0043350D01*
X0068201Y0043383D01*
X0068239Y0043419D01*
X0068274Y0043458D01*
X0068306Y0043500D01*
X0068335Y0043544D01*
X0068361Y0043589D01*
X0068383Y0043637D01*
X0068402Y0043686D01*
X0068500Y0043978D02*
X0066944Y0045922D01*
X0067042Y0046214D02*
X0067061Y0046263D01*
X0067083Y0046311D01*
X0067109Y0046356D01*
X0067138Y0046400D01*
X0067170Y0046442D01*
X0067205Y0046481D01*
X0067243Y0046517D01*
X0067283Y0046550D01*
X0067326Y0046581D01*
X0067370Y0046608D01*
X0067417Y0046632D01*
X0067465Y0046653D01*
X0067515Y0046670D01*
X0067566Y0046683D01*
X0067617Y0046692D01*
X0067670Y0046698D01*
X0067722Y0046700D01*
X0067774Y0046698D01*
X0067827Y0046692D01*
X0067878Y0046683D01*
X0067929Y0046670D01*
X0067979Y0046653D01*
X0068027Y0046632D01*
X0068073Y0046608D01*
X0068118Y0046581D01*
X0068161Y0046550D01*
X0068201Y0046517D01*
X0068239Y0046481D01*
X0068274Y0046442D01*
X0068306Y0046400D01*
X0068335Y0046356D01*
X0068361Y0046311D01*
X0068383Y0046263D01*
X0068402Y0046214D01*
X0067042Y0046214D02*
X0066999Y0046123D01*
X0066960Y0046030D01*
X0066924Y0045936D01*
X0066891Y0045841D01*
X0066862Y0045745D01*
X0066836Y0045647D01*
X0066813Y0045549D01*
X0066794Y0045451D01*
X0066778Y0045351D01*
X0066766Y0045251D01*
X0066757Y0045151D01*
X0066752Y0045051D01*
X0066750Y0044950D01*
X0068694Y0044950D02*
X0068692Y0045051D01*
X0068687Y0045151D01*
X0068678Y0045251D01*
X0068666Y0045351D01*
X0068650Y0045451D01*
X0068631Y0045549D01*
X0068608Y0045647D01*
X0068582Y0045745D01*
X0068553Y0045841D01*
X0068520Y0045936D01*
X0068484Y0046030D01*
X0068445Y0046123D01*
X0068402Y0046214D01*
X0070470Y0046700D02*
X0070470Y0043200D01*
X0072414Y0043200D02*
X0072414Y0046700D01*
X0068694Y0044950D02*
X0068692Y0044849D01*
X0068687Y0044749D01*
X0068678Y0044649D01*
X0068666Y0044549D01*
X0068650Y0044449D01*
X0068631Y0044351D01*
X0068608Y0044253D01*
X0068582Y0044155D01*
X0068553Y0044059D01*
X0068520Y0043964D01*
X0068484Y0043870D01*
X0068445Y0043777D01*
X0068402Y0043686D01*
X0065094Y0044172D02*
X0065094Y0045144D01*
X0063928Y0045144D01*
X0065095Y0045144D02*
X0065093Y0045223D01*
X0065087Y0045301D01*
X0065077Y0045380D01*
X0065063Y0045457D01*
X0065045Y0045534D01*
X0065024Y0045610D01*
X0064998Y0045684D01*
X0064969Y0045758D01*
X0064936Y0045829D01*
X0064899Y0045899D01*
X0064859Y0045967D01*
X0064816Y0046033D01*
X0064769Y0046096D01*
X0064720Y0046158D01*
X0064667Y0046216D01*
X0064611Y0046272D01*
X0064553Y0046325D01*
X0064491Y0046374D01*
X0064428Y0046421D01*
X0064362Y0046464D01*
X0064294Y0046504D01*
X0064224Y0046541D01*
X0064153Y0046574D01*
X0064079Y0046603D01*
X0064005Y0046629D01*
X0063929Y0046650D01*
X0063852Y0046668D01*
X0063775Y0046682D01*
X0063696Y0046692D01*
X0063618Y0046698D01*
X0063539Y0046700D01*
X0060717Y0046700D02*
X0061494Y0043978D01*
X0059550Y0043978D01*
X0060133Y0044756D02*
X0060133Y0043200D01*
X0057894Y0043200D02*
X0055950Y0043200D01*
X0056922Y0043200D02*
X0056922Y0046700D01*
X0057894Y0045922D01*
X0054165Y0046700D02*
X0054165Y0043200D01*
X0052610Y0043200D01*
X0051054Y0044172D02*
X0051054Y0046700D01*
X0049110Y0046700D02*
X0049110Y0044172D01*
X0049112Y0044111D01*
X0049118Y0044050D01*
X0049127Y0043990D01*
X0049141Y0043930D01*
X0049158Y0043872D01*
X0049178Y0043814D01*
X0049203Y0043758D01*
X0049230Y0043704D01*
X0049261Y0043651D01*
X0049296Y0043601D01*
X0049333Y0043552D01*
X0049373Y0043507D01*
X0049417Y0043463D01*
X0049462Y0043423D01*
X0049511Y0043386D01*
X0049561Y0043351D01*
X0049614Y0043320D01*
X0049668Y0043293D01*
X0049724Y0043268D01*
X0049782Y0043248D01*
X0049840Y0043231D01*
X0049900Y0043217D01*
X0049960Y0043208D01*
X0050021Y0043202D01*
X0050082Y0043200D01*
X0050143Y0043202D01*
X0050204Y0043208D01*
X0050264Y0043217D01*
X0050324Y0043231D01*
X0050382Y0043248D01*
X0050440Y0043268D01*
X0050496Y0043293D01*
X0050550Y0043320D01*
X0050603Y0043351D01*
X0050653Y0043386D01*
X0050702Y0043423D01*
X0050747Y0043463D01*
X0050791Y0043507D01*
X0050831Y0043552D01*
X0050868Y0043601D01*
X0050903Y0043651D01*
X0050934Y0043704D01*
X0050961Y0043758D01*
X0050986Y0043814D01*
X0051006Y0043872D01*
X0051023Y0043930D01*
X0051037Y0043990D01*
X0051046Y0044050D01*
X0051052Y0044111D01*
X0051054Y0044172D01*
X0047334Y0043978D02*
X0045390Y0043978D01*
X0045973Y0044756D02*
X0045973Y0043200D01*
X0047334Y0043978D02*
X0046557Y0046700D01*
X0043614Y0046700D02*
X0043614Y0043200D01*
X0041670Y0043200D02*
X0041670Y0046700D01*
X0041670Y0045144D02*
X0043614Y0045144D01*
X0045420Y0040450D02*
X0046198Y0040450D01*
X0046254Y0040448D01*
X0046309Y0040442D01*
X0046363Y0040432D01*
X0046417Y0040418D01*
X0046470Y0040401D01*
X0046521Y0040380D01*
X0046571Y0040355D01*
X0046619Y0040326D01*
X0046664Y0040295D01*
X0046707Y0040260D01*
X0046748Y0040222D01*
X0046786Y0040181D01*
X0046821Y0040138D01*
X0046853Y0040093D01*
X0046881Y0040045D01*
X0046906Y0039995D01*
X0046927Y0039944D01*
X0046944Y0039891D01*
X0046958Y0039837D01*
X0046968Y0039783D01*
X0046974Y0039728D01*
X0046976Y0039672D01*
X0046975Y0039672D02*
X0046975Y0037728D01*
X0046976Y0037728D02*
X0046974Y0037675D01*
X0046969Y0037622D01*
X0046960Y0037570D01*
X0046947Y0037518D01*
X0046931Y0037467D01*
X0046912Y0037418D01*
X0046889Y0037370D01*
X0046863Y0037324D01*
X0046834Y0037279D01*
X0046802Y0037237D01*
X0046767Y0037197D01*
X0046729Y0037159D01*
X0046689Y0037124D01*
X0046647Y0037092D01*
X0046602Y0037063D01*
X0046556Y0037037D01*
X0046508Y0037014D01*
X0046459Y0036995D01*
X0046408Y0036979D01*
X0046356Y0036966D01*
X0046304Y0036957D01*
X0046251Y0036952D01*
X0046198Y0036950D01*
X0045420Y0036950D01*
X0048481Y0036950D02*
X0049259Y0036950D01*
X0048870Y0036950D02*
X0048870Y0040450D01*
X0049259Y0040450D02*
X0048481Y0040450D01*
X0050898Y0040450D02*
X0050898Y0036950D01*
X0052842Y0040450D01*
X0052842Y0036950D01*
X0054618Y0037922D02*
X0054618Y0039478D01*
X0054620Y0039539D01*
X0054626Y0039600D01*
X0054635Y0039660D01*
X0054649Y0039720D01*
X0054666Y0039778D01*
X0054686Y0039836D01*
X0054711Y0039892D01*
X0054738Y0039946D01*
X0054769Y0039999D01*
X0054804Y0040049D01*
X0054841Y0040098D01*
X0054881Y0040143D01*
X0054925Y0040187D01*
X0054970Y0040227D01*
X0055019Y0040264D01*
X0055069Y0040299D01*
X0055122Y0040330D01*
X0055176Y0040357D01*
X0055232Y0040382D01*
X0055290Y0040402D01*
X0055348Y0040419D01*
X0055408Y0040433D01*
X0055468Y0040442D01*
X0055529Y0040448D01*
X0055590Y0040450D01*
X0055651Y0040448D01*
X0055712Y0040442D01*
X0055772Y0040433D01*
X0055832Y0040419D01*
X0055890Y0040402D01*
X0055948Y0040382D01*
X0056004Y0040357D01*
X0056058Y0040330D01*
X0056111Y0040299D01*
X0056161Y0040264D01*
X0056210Y0040227D01*
X0056255Y0040187D01*
X0056299Y0040143D01*
X0056339Y0040098D01*
X0056376Y0040049D01*
X0056411Y0039999D01*
X0056442Y0039946D01*
X0056469Y0039892D01*
X0056494Y0039836D01*
X0056514Y0039778D01*
X0056531Y0039720D01*
X0056545Y0039660D01*
X0056554Y0039600D01*
X0056560Y0039539D01*
X0056562Y0039478D01*
X0056562Y0037922D01*
X0056560Y0037861D01*
X0056554Y0037800D01*
X0056545Y0037740D01*
X0056531Y0037680D01*
X0056514Y0037622D01*
X0056494Y0037564D01*
X0056469Y0037508D01*
X0056442Y0037454D01*
X0056411Y0037401D01*
X0056376Y0037351D01*
X0056339Y0037302D01*
X0056299Y0037257D01*
X0056255Y0037213D01*
X0056210Y0037173D01*
X0056161Y0037136D01*
X0056111Y0037101D01*
X0056058Y0037070D01*
X0056004Y0037043D01*
X0055948Y0037018D01*
X0055890Y0036998D01*
X0055832Y0036981D01*
X0055772Y0036967D01*
X0055712Y0036958D01*
X0055651Y0036952D01*
X0055590Y0036950D01*
X0055529Y0036952D01*
X0055468Y0036958D01*
X0055408Y0036967D01*
X0055348Y0036981D01*
X0055290Y0036998D01*
X0055232Y0037018D01*
X0055176Y0037043D01*
X0055122Y0037070D01*
X0055069Y0037101D01*
X0055019Y0037136D01*
X0054970Y0037173D01*
X0054925Y0037213D01*
X0054881Y0037257D01*
X0054841Y0037302D01*
X0054804Y0037351D01*
X0054769Y0037401D01*
X0054738Y0037454D01*
X0054711Y0037508D01*
X0054686Y0037564D01*
X0054666Y0037622D01*
X0054649Y0037680D01*
X0054635Y0037740D01*
X0054626Y0037800D01*
X0054620Y0037861D01*
X0054618Y0037922D01*
X0058486Y0038408D02*
X0059556Y0038992D01*
X0059167Y0040450D02*
X0059095Y0040448D01*
X0059023Y0040443D01*
X0058951Y0040434D01*
X0058880Y0040422D01*
X0058810Y0040406D01*
X0058740Y0040386D01*
X0058672Y0040363D01*
X0058605Y0040337D01*
X0058539Y0040308D01*
X0058474Y0040275D01*
X0058412Y0040239D01*
X0058351Y0040200D01*
X0058292Y0040158D01*
X0059556Y0038991D02*
X0059602Y0039021D01*
X0059646Y0039053D01*
X0059688Y0039089D01*
X0059727Y0039127D01*
X0059763Y0039168D01*
X0059797Y0039211D01*
X0059827Y0039257D01*
X0059854Y0039304D01*
X0059878Y0039353D01*
X0059898Y0039404D01*
X0059915Y0039456D01*
X0059928Y0039509D01*
X0059937Y0039563D01*
X0059943Y0039617D01*
X0059945Y0039672D01*
X0059943Y0039728D01*
X0059937Y0039783D01*
X0059927Y0039837D01*
X0059913Y0039891D01*
X0059896Y0039944D01*
X0059875Y0039995D01*
X0059850Y0040045D01*
X0059821Y0040093D01*
X0059790Y0040138D01*
X0059755Y0040181D01*
X0059717Y0040222D01*
X0059676Y0040260D01*
X0059633Y0040295D01*
X0059588Y0040326D01*
X0059540Y0040355D01*
X0059490Y0040380D01*
X0059439Y0040401D01*
X0059386Y0040418D01*
X0059332Y0040432D01*
X0059278Y0040442D01*
X0059223Y0040448D01*
X0059167Y0040450D01*
X0062550Y0040450D02*
X0061383Y0036950D01*
X0063716Y0036950D02*
X0062550Y0040450D01*
X0066120Y0040450D02*
X0067092Y0040450D01*
X0067092Y0036950D01*
X0065148Y0036950D02*
X0065926Y0038506D01*
X0066120Y0038506D02*
X0067092Y0038506D01*
X0066120Y0038506D02*
X0066059Y0038508D01*
X0065998Y0038514D01*
X0065938Y0038523D01*
X0065878Y0038537D01*
X0065820Y0038554D01*
X0065762Y0038574D01*
X0065706Y0038599D01*
X0065652Y0038626D01*
X0065599Y0038657D01*
X0065549Y0038692D01*
X0065500Y0038729D01*
X0065455Y0038769D01*
X0065411Y0038813D01*
X0065371Y0038858D01*
X0065334Y0038907D01*
X0065299Y0038957D01*
X0065268Y0039010D01*
X0065241Y0039064D01*
X0065216Y0039120D01*
X0065196Y0039178D01*
X0065179Y0039236D01*
X0065165Y0039296D01*
X0065156Y0039356D01*
X0065150Y0039417D01*
X0065148Y0039478D01*
X0065150Y0039539D01*
X0065156Y0039600D01*
X0065165Y0039660D01*
X0065179Y0039720D01*
X0065196Y0039778D01*
X0065216Y0039836D01*
X0065241Y0039892D01*
X0065268Y0039946D01*
X0065299Y0039999D01*
X0065334Y0040049D01*
X0065371Y0040098D01*
X0065411Y0040143D01*
X0065455Y0040187D01*
X0065500Y0040227D01*
X0065549Y0040264D01*
X0065599Y0040299D01*
X0065652Y0040330D01*
X0065706Y0040357D01*
X0065762Y0040382D01*
X0065820Y0040402D01*
X0065878Y0040419D01*
X0065938Y0040433D01*
X0065998Y0040442D01*
X0066059Y0040448D01*
X0066120Y0040450D01*
X0068658Y0040450D02*
X0070602Y0040450D01*
X0069630Y0040450D02*
X0069630Y0036950D01*
X0063425Y0037825D02*
X0061675Y0037825D01*
X0058486Y0038409D02*
X0058440Y0038379D01*
X0058396Y0038347D01*
X0058354Y0038311D01*
X0058315Y0038273D01*
X0058279Y0038232D01*
X0058245Y0038189D01*
X0058215Y0038143D01*
X0058188Y0038096D01*
X0058164Y0038047D01*
X0058144Y0037996D01*
X0058127Y0037944D01*
X0058114Y0037891D01*
X0058105Y0037837D01*
X0058099Y0037783D01*
X0058097Y0037728D01*
X0058099Y0037672D01*
X0058105Y0037617D01*
X0058115Y0037563D01*
X0058129Y0037509D01*
X0058146Y0037456D01*
X0058167Y0037405D01*
X0058192Y0037355D01*
X0058221Y0037307D01*
X0058252Y0037262D01*
X0058287Y0037219D01*
X0058325Y0037178D01*
X0058366Y0037140D01*
X0058409Y0037105D01*
X0058454Y0037074D01*
X0058502Y0037045D01*
X0058552Y0037020D01*
X0058603Y0036999D01*
X0058656Y0036982D01*
X0058710Y0036968D01*
X0058764Y0036958D01*
X0058819Y0036952D01*
X0058875Y0036950D01*
X0058951Y0036952D01*
X0059027Y0036957D01*
X0059103Y0036966D01*
X0059178Y0036978D01*
X0059253Y0036994D01*
X0059327Y0037013D01*
X0059400Y0037036D01*
X0059472Y0037062D01*
X0059542Y0037091D01*
X0059611Y0037124D01*
X0059678Y0037160D01*
X0059744Y0037199D01*
X0059808Y0037241D01*
X0059870Y0037285D01*
X0059929Y0037333D01*
X0059987Y0037383D01*
X0060042Y0037436D01*
X0063150Y0044172D02*
X0063150Y0044367D01*
X0063152Y0044423D01*
X0063158Y0044478D01*
X0063168Y0044532D01*
X0063182Y0044586D01*
X0063199Y0044639D01*
X0063220Y0044690D01*
X0063245Y0044740D01*
X0063274Y0044788D01*
X0063305Y0044833D01*
X0063340Y0044876D01*
X0063378Y0044917D01*
X0063419Y0044955D01*
X0063462Y0044990D01*
X0063507Y0045021D01*
X0063555Y0045050D01*
X0063605Y0045075D01*
X0063656Y0045096D01*
X0063709Y0045113D01*
X0063763Y0045127D01*
X0063817Y0045137D01*
X0063872Y0045143D01*
X0063928Y0045145D01*
X0063150Y0044172D02*
X0063152Y0044111D01*
X0063158Y0044050D01*
X0063167Y0043990D01*
X0063181Y0043930D01*
X0063198Y0043872D01*
X0063218Y0043814D01*
X0063243Y0043758D01*
X0063270Y0043704D01*
X0063301Y0043651D01*
X0063336Y0043601D01*
X0063373Y0043552D01*
X0063413Y0043507D01*
X0063457Y0043463D01*
X0063502Y0043423D01*
X0063551Y0043386D01*
X0063601Y0043351D01*
X0063654Y0043320D01*
X0063708Y0043293D01*
X0063764Y0043268D01*
X0063822Y0043248D01*
X0063880Y0043231D01*
X0063940Y0043217D01*
X0064000Y0043208D01*
X0064061Y0043202D01*
X0064122Y0043200D01*
X0064183Y0043202D01*
X0064244Y0043208D01*
X0064304Y0043217D01*
X0064364Y0043231D01*
X0064422Y0043248D01*
X0064480Y0043268D01*
X0064536Y0043293D01*
X0064590Y0043320D01*
X0064643Y0043351D01*
X0064693Y0043386D01*
X0064742Y0043423D01*
X0064787Y0043463D01*
X0064831Y0043507D01*
X0064871Y0043552D01*
X0064908Y0043601D01*
X0064943Y0043651D01*
X0064974Y0043704D01*
X0065001Y0043758D01*
X0065026Y0043814D01*
X0065046Y0043872D01*
X0065063Y0043930D01*
X0065077Y0043990D01*
X0065086Y0044050D01*
X0065092Y0044111D01*
X0065094Y0044172D01*
M02*
